<svg xmlns="http://www.w3.org/2000/svg" xmlns:xlink="http://www.w3.org/1999/xlink" xmlns:inkscape="http://www.inkscape.org/namespaces/inkscape" version="1.1" width="190.6" height="56.1" viewBox="58.11 148.29 190.58 56.11">
<defs>
<clipPath id="clip_1">
<path transform="matrix(1,0,0,-1,0,352.69)" d="M0 352.69H306.8V0H0Z"/>
</clipPath>
</defs>
<g inkscape:groupmode="layer" inkscape:label="Layer 2" fill="#ffffff">
<g clip-path="url(#clip_1)">
<path transform="matrix(1,0,0,-1,60.1131,177.542)" d="M0 0C0 14.242 8.697 24.58 23.281 24.58 35.47 24.58 43.892 17.186 45.878 5.409H39.921C38.141 14.173 32.046 19.309 23.281 19.309 12.668 19.309 6.026 11.981 6.026 0 6.026-12.121 12.806-19.584 22.665-19.584 31.635-19.584 37.318-13.49 37.318-4.795H21.159V.135H38.003C43.002 .135 45.672-2.398 45.672-7.053V-24.104H40.537V-7.738H40.399C39.509-18.283 33.278-24.857 22.665-24.857 9.45-24.857 0-15.133 0 0"/>
<path transform="matrix(1,0,0,-1,0,352.69)" d="M115.161 202.399H120.844V151.044H115.161Z"/>
<path transform="matrix(1,0,0,-1,158.2982,183.159)" d="M0 0C0 8.148-4.725 13.697-11.983 13.697-19.242 13.697-23.966 8.148-23.966 0-23.966-9.312-18.557-14.311-11.983-14.311-4.246-14.311 0-7.874 0 0M-29.786 0C-29.786 12.121-21.843 18.626-11.983 18.626-.411 18.626 5.82 10.272 5.82 0 5.82-12.531-1.78-19.24-11.983-19.24-23.624-19.24-29.786-10.955-29.786 0"/>
<path transform="matrix(1,0,0,-1,169.6596,190.2101)" d="M0 0H5.547C5.957-4.726 10.271-7.328 15.749-7.328 20.885-7.328 23.35-5.342 23.35-1.713 23.35 1.711 20.679 2.465 16.913 3.766L11.641 5.546C6.3 7.326 .959 8.969 .959 15.543 .959 21.705 5.752 25.678 13.694 25.678 21.706 25.678 27.253 21.364 28.143 13.284H22.596C21.98 18.349 18.419 20.814 13.489 20.814 9.038 20.814 6.437 18.83 6.437 15.681 6.437 11.914 10.408 11.161 13.421 10.134L18.352 8.49C24.993 6.3 28.965 4.039 28.965-1.986 28.965-8.355 24.309-12.189 15.475-12.189 6.847-12.189 .48-7.67 0 0"/>
<path transform="matrix(1,0,0,-1,203.6884,190.2101)" d="M0 0H5.547C5.957-4.726 10.271-7.328 15.749-7.328 20.885-7.328 23.35-5.342 23.35-1.713 23.35 1.711 20.679 2.465 16.913 3.766L11.641 5.546C6.3 7.326 .959 8.969 .959 15.543 .959 21.705 5.752 25.678 13.696 25.678 21.706 25.678 27.253 21.364 28.143 13.284H22.596C21.98 18.349 18.419 20.814 13.489 20.814 9.038 20.814 6.437 18.83 6.437 15.681 6.437 11.914 10.408 11.161 13.421 10.134L18.352 8.49C24.993 6.3 28.965 4.039 28.965-1.986 28.965-8.355 24.309-12.189 15.475-12.189 6.847-12.189 .48-7.67 0 0"/>
<path transform="matrix(1,0,0,-1,0,352.69)" d="M239.634 187.335H245.317V151.044H239.634ZM238.265 197.676C238.265 200.072 240.113 201.852 242.51 201.852 244.906 201.852 246.687 200.072 246.687 197.676 246.687 195.277 244.906 193.429 242.51 193.429 240.113 193.429 238.265 195.277 238.265 197.676"/>
</g>
</g>
</svg>
