<svg xmlns="http://www.w3.org/2000/svg" viewBox="0 0 306.8 352.69">
  <path d="m306.8,166.33v73.65c0,8.39-6.83,15.11-15.22,15.11h-80.59c-7.05,0-13.43,1.23-17.91,3.81-4.25,2.35-6.49,5.6-6.49,10.52v68.28c0,8.28-6.72,15-15,15H14.66c-8.06,0-14.66-6.72-14.66-14.77V54.17c0-8.39,6.72-15.22,15.11-15.22h35.59c7.05,0,13.43-1.12,17.91-3.58,4.14-2.24,6.49-5.37,6.49-10.3v-9.96c0-8.39,6.83-15.11,15.11-15.11h126.26c8.39,0,15.11,6.72,15.11,15.11v15.11c0,8.39-6.72,15.11-15.11,15.11h-124.58c-5.37.11-10.75.56-14.66,2.46-1.79.89-3.13,2.13-4.14,3.69-1.01,1.68-1.79,4.03-1.79,7.72v185.58c0,2.24,1.79,3.92,3.92,3.92h95.7c5.26,0,10.3-.56,13.88-2.35,1.68-.9,2.91-2.01,3.81-3.58,1.01-1.57,1.68-3.81,1.68-7.28v-69.17c0-8.39,6.83-15.11,15.22-15.11h86.07c8.39,0,15.22,6.72,15.22,15.11Z" fill="#fff"/>
</svg>
